<svg viewBox="0 0 256 256" xmlns="http://www.w3.org/2000/svg"><path fill="#fff" d="m76 60a16 16 0 1 1 -16-16 16.01833 16.01833 0 0 1 16 16zm52-16a16 16 0 1 0 16 16 16.01833 16.01833 0 0 0 -16-16zm68 32a16 16 0 1 0 -16-16 16.01833 16.01833 0 0 0 16 16zm-136 104a16 16 0 1 0 16 16 16.01833 16.01833 0 0 0 -16-16zm68 0a16 16 0 1 0 16 16 16.01833 16.01833 0 0 0 -16-16zm68 0a16 16 0 1 0 16 16 16.01833 16.01833 0 0 0 -16-16zm-136-68a16 16 0 1 0 16 16 16.01833 16.01833 0 0 0 -16-16zm68 0a16 16 0 1 0 16 16 16.01833 16.01833 0 0 0 -16-16zm68 0a16 16 0 1 0 16 16 16.01833 16.01833 0 0 0 -16-16z"/></svg>