<?xml version="1.0" encoding="iso-8859-1"?>
<!-- Generator: Adobe Illustrator 16.0.0, SVG Export Plug-In . SVG Version: 6.00 Build 0)  -->
<!DOCTYPE svg PUBLIC "-//W3C//DTD SVG 1.1//EN" "http://www.w3.org/Graphics/SVG/1.1/DTD/svg11.dtd">
<svg version="1.1" id="Capa_1" xmlns="http://www.w3.org/2000/svg" xmlns:xlink="http://www.w3.org/1999/xlink" x="0px" y="0px"
	 width="606.193px" height="606.193px" viewBox="0 0 606.193 606.193" style="enable-background:new 0 0 606.193 606.193;"
	 xml:space="preserve">
<g>
	<g>
		<g>
			<path fill="#fff" d="M61.318,187.65h70.87c32.058,0,58.14-26.082,58.14-58.14V58.64c0-32.059-26.082-58.14-58.14-58.14h-70.87
				c-32.059,0-58.14,26.082-58.14,58.14v70.87C3.178,161.569,29.259,187.65,61.318,187.65z M46.018,58.64
				c0-8.45,6.85-15.3,15.3-15.3h70.87c8.45,0,15.3,6.85,15.3,15.3v70.87c0,8.45-6.85,15.3-15.3,15.3h-70.87
				c-8.45,0-15.3-6.85-15.3-15.3V58.64z"/>
			<path fill="#fff" d="M132.188,188.15h-70.87c-32.334,0-58.64-26.306-58.64-58.64V58.64C2.678,26.306,28.983,0,61.318,0h70.87
				c32.334,0,58.64,26.306,58.64,58.64v70.87C190.828,161.845,164.522,188.15,132.188,188.15z M61.318,1
				C29.535,1,3.678,26.857,3.678,58.64v70.87c0,31.783,25.857,57.64,57.64,57.64h70.87c31.783,0,57.64-25.857,57.64-57.64V58.64
				c0-31.783-25.857-57.64-57.64-57.64H61.318z M132.188,145.311h-70.87c-8.712,0-15.8-7.088-15.8-15.8V58.64
				c0-8.712,7.088-15.8,15.8-15.8h70.87c8.712,0,15.8,7.088,15.8,15.8v70.87C147.988,138.223,140.9,145.311,132.188,145.311z
				 M61.318,43.84c-8.161,0-14.8,6.639-14.8,14.8v70.87c0,8.161,6.639,14.8,14.8,14.8h70.87c8.161,0,14.8-6.639,14.8-14.8V58.64
				c0-8.161-6.639-14.8-14.8-14.8H61.318z"/>
		</g>
		<g>
			<path fill="#fff" d="M267.662,187.65h70.87c32.059,0,58.141-26.082,58.141-58.14V58.64c0-32.059-26.082-58.14-58.141-58.14h-70.87
				c-32.059,0-58.14,26.082-58.14,58.14v70.87C209.521,161.569,235.603,187.65,267.662,187.65z M252.361,58.64
				c0-8.45,6.85-15.3,15.3-15.3h70.87c8.451,0,15.301,6.85,15.301,15.3v70.87c0,8.45-6.85,15.3-15.301,15.3h-70.87
				c-8.45,0-15.3-6.85-15.3-15.3V58.64z"/>
			<path fill="#fff" d="M338.531,188.15h-70.87c-32.334,0-58.64-26.306-58.64-58.64V58.64c0-32.334,26.306-58.64,58.64-58.64h70.87
				c32.335,0,58.641,26.306,58.641,58.64v70.87C397.172,161.845,370.866,188.15,338.531,188.15z M267.662,1
				c-31.783,0-57.64,25.857-57.64,57.64v70.87c0,31.783,25.857,57.64,57.64,57.64h70.87c31.783,0,57.641-25.857,57.641-57.64V58.64
				c0-31.783-25.857-57.64-57.641-57.64H267.662z M338.531,145.311h-70.87c-8.712,0-15.8-7.088-15.8-15.8V58.64
				c0-8.712,7.088-15.8,15.8-15.8h70.87c8.713,0,15.801,7.088,15.801,15.8v70.87C354.332,138.223,347.244,145.311,338.531,145.311z
				 M267.662,43.84c-8.161,0-14.8,6.639-14.8,14.8v70.87c0,8.161,6.639,14.8,14.8,14.8h70.87c8.161,0,14.801-6.639,14.801-14.8
				V58.64c0-8.161-6.64-14.8-14.801-14.8H267.662z"/>
		</g>
		<g>
			<path fill="#fff" d="M544.875,0.5h-70.869c-32.059,0-58.141,26.082-58.141,58.14v70.87c0,32.059,26.082,58.14,58.141,58.14h70.869
				c32.059,0,58.141-26.082,58.141-58.14V58.64C603.016,26.582,576.934,0.5,544.875,0.5z M560.176,129.51
				c0,8.45-6.85,15.3-15.301,15.3h-70.869c-8.451,0-15.301-6.85-15.301-15.3V58.64c0-8.45,6.85-15.3,15.301-15.3h70.869
				c8.451,0,15.301,6.85,15.301,15.3V129.51z"/>
			<path fill="#fff" d="M544.875,188.15h-70.869c-32.335,0-58.641-26.306-58.641-58.64V58.64c0-32.334,26.306-58.64,58.641-58.64h70.869
				c32.335,0,58.641,26.306,58.641,58.64v70.87C603.516,161.845,577.21,188.15,544.875,188.15z M474.006,1
				c-31.783,0-57.641,25.857-57.641,57.64v70.87c0,31.783,25.857,57.64,57.641,57.64h70.869c31.783,0,57.641-25.857,57.641-57.64
				V58.64c0-31.783-25.857-57.64-57.641-57.64H474.006z M544.875,145.311h-70.869c-8.713,0-15.801-7.088-15.801-15.8V58.64
				c0-8.712,7.088-15.8,15.801-15.8h70.869c8.713,0,15.801,7.088,15.801,15.8v70.87
				C560.676,138.223,553.588,145.311,544.875,145.311z M474.006,43.84c-8.161,0-14.801,6.639-14.801,14.8v70.87
				c0,8.161,6.64,14.8,14.801,14.8h70.869c8.161,0,14.801-6.639,14.801-14.8V58.64c0-8.161-6.64-14.8-14.801-14.8H474.006z"/>
		</g>
		<g>
			<path fill="#fff" d="M3.178,338.531c0,32.059,26.082,58.141,58.14,58.141h70.87c32.058,0,58.14-26.082,58.14-58.141v-70.871
				c0-32.058-26.082-58.14-58.14-58.14h-70.87c-32.059,0-58.14,26.082-58.14,58.14V338.531z M46.018,267.661
				c0-8.45,6.85-15.3,15.3-15.3h70.87c8.45,0,15.3,6.85,15.3,15.3v70.871c0,8.449-6.85,15.299-15.3,15.299h-70.87
				c-8.45,0-15.3-6.85-15.3-15.299V267.661z"/>
			<path fill="#fff" d="M132.188,397.172h-70.87c-32.334,0-58.64-26.306-58.64-58.641v-70.871c0-32.334,26.306-58.64,58.64-58.64h70.87
				c32.334,0,58.64,26.306,58.64,58.64v70.871C190.828,370.866,164.522,397.172,132.188,397.172z M61.318,210.021
				c-31.783,0-57.64,25.857-57.64,57.64v70.871c0,31.783,25.857,57.641,57.64,57.641h70.87c31.783,0,57.64-25.857,57.64-57.641
				v-70.871c0-31.783-25.857-57.64-57.64-57.64H61.318z M132.188,354.33h-70.87c-8.712,0-15.8-7.087-15.8-15.799v-70.871
				c0-8.712,7.088-15.8,15.8-15.8h70.87c8.712,0,15.8,7.088,15.8,15.8v70.871C147.988,347.243,140.9,354.33,132.188,354.33z
				 M61.318,252.861c-8.161,0-14.8,6.639-14.8,14.8v70.871c0,8.16,6.639,14.799,14.8,14.799h70.87c8.161,0,14.8-6.639,14.8-14.799
				v-70.871c0-8.161-6.639-14.8-14.8-14.8H61.318z"/>
		</g>
		<g>
			<path fill="#fff" d="M209.521,338.531c0,32.059,26.082,58.141,58.14,58.141h70.87c32.059,0,58.141-26.082,58.141-58.141v-70.871
				c0-32.058-26.082-58.14-58.141-58.14h-70.87c-32.059,0-58.14,26.082-58.14,58.14V338.531z M252.361,267.661
				c0-8.45,6.85-15.3,15.3-15.3h70.87c8.451,0,15.301,6.85,15.301,15.3v70.871c0,8.449-6.85,15.299-15.301,15.299h-70.87
				c-8.45,0-15.3-6.85-15.3-15.299V267.661z"/>
			<path fill="#fff" d="M338.531,397.172h-70.87c-32.334,0-58.64-26.306-58.64-58.641v-70.871c0-32.334,26.306-58.64,58.64-58.64h70.87
				c32.335,0,58.641,26.306,58.641,58.64v70.871C397.172,370.866,370.866,397.172,338.531,397.172z M267.662,210.021
				c-31.783,0-57.64,25.857-57.64,57.64v70.871c0,31.783,25.857,57.641,57.64,57.641h70.87c31.783,0,57.641-25.857,57.641-57.641
				v-70.871c0-31.783-25.857-57.64-57.641-57.64H267.662z M338.531,354.33h-70.87c-8.712,0-15.8-7.087-15.8-15.799v-70.871
				c0-8.712,7.088-15.8,15.8-15.8h70.87c8.713,0,15.801,7.088,15.801,15.8v70.871C354.332,347.243,347.244,354.33,338.531,354.33z
				 M267.662,252.861c-8.161,0-14.8,6.639-14.8,14.8v70.871c0,8.16,6.639,14.799,14.8,14.799h70.87
				c8.161,0,14.801-6.639,14.801-14.799v-70.871c0-8.161-6.64-14.8-14.801-14.8H267.662z"/>
		</g>
		<g>
			<path fill="#fff" d="M544.875,209.521h-70.869c-32.059,0-58.141,26.082-58.141,58.14v70.871c0,32.059,26.082,58.141,58.141,58.141h70.869
				c32.059,0,58.141-26.082,58.141-58.141v-70.871C603.016,235.603,576.934,209.521,544.875,209.521z M560.176,338.531
				c0,8.451-6.85,15.301-15.301,15.301h-70.869c-8.451,0-15.301-6.85-15.301-15.301v-70.871c0-8.45,6.85-15.3,15.301-15.3h70.869
				c8.451,0,15.301,6.85,15.301,15.3V338.531z"/>
			<path fill="#fff" d="M544.875,397.172h-70.869c-32.335,0-58.641-26.306-58.641-58.641v-70.871c0-32.334,26.306-58.64,58.641-58.64h70.869
				c32.335,0,58.641,26.306,58.641,58.64v70.871C603.516,370.866,577.21,397.172,544.875,397.172z M474.006,210.021
				c-31.783,0-57.641,25.857-57.641,57.64v70.871c0,31.783,25.857,57.641,57.641,57.641h70.869
				c31.783,0,57.641-25.857,57.641-57.641v-70.871c0-31.783-25.857-57.64-57.641-57.64H474.006z M544.875,354.332h-70.869
				c-8.713,0-15.801-7.088-15.801-15.801v-70.871c0-8.712,7.088-15.8,15.801-15.8h70.869c8.713,0,15.801,7.088,15.801,15.8v70.871
				C560.676,347.244,553.588,354.332,544.875,354.332z M474.006,252.861c-8.161,0-14.801,6.639-14.801,14.8v70.871
				c0,8.161,6.64,14.801,14.801,14.801h70.869c8.161,0,14.801-6.64,14.801-14.801v-70.871c0-8.161-6.64-14.8-14.801-14.8H474.006z"
				/>
		</g>
		<g>
			<path fill="#fff" d="M61.318,605.691h70.87c32.058,0,58.14-26.08,58.14-58.139v-70.869c0-32.059-26.082-58.141-58.14-58.141h-70.87
				c-32.059,0-58.14,26.082-58.14,58.141v70.869C3.178,579.611,29.259,605.691,61.318,605.691z M46.018,476.684
				c0-8.451,6.85-15.301,15.3-15.301h70.87c8.45,0,15.3,6.85,15.3,15.301v70.869c0,8.449-6.85,15.301-15.3,15.301h-70.87
				c-8.45,0-15.3-6.852-15.3-15.301V476.684z"/>
			<path fill="#fff" d="M132.188,606.191h-70.87c-32.334,0-58.64-26.306-58.64-58.639v-70.869c0-32.335,26.306-58.641,58.64-58.641h70.87
				c32.334,0,58.64,26.306,58.64,58.641v70.869C190.828,579.886,164.522,606.191,132.188,606.191z M61.318,419.043
				c-31.783,0-57.64,25.857-57.64,57.641v70.869c0,31.782,25.857,57.639,57.64,57.639h70.87c31.783,0,57.64-25.856,57.64-57.639
				v-70.869c0-31.783-25.857-57.641-57.64-57.641H61.318z M132.188,563.354h-70.87c-8.712,0-15.8-7.088-15.8-15.801v-70.869
				c0-8.713,7.088-15.801,15.8-15.801h70.87c8.712,0,15.8,7.088,15.8,15.801v70.869C147.988,556.266,140.9,563.354,132.188,563.354z
				 M61.318,461.883c-8.161,0-14.8,6.64-14.8,14.801v70.869c0,8.161,6.639,14.801,14.8,14.801h70.87c8.161,0,14.8-6.64,14.8-14.801
				v-70.869c0-8.161-6.639-14.801-14.8-14.801H61.318z"/>
		</g>
		<g>
			<path fill="#fff" d="M209.521,547.553c0,32.059,26.082,58.139,58.14,58.139h70.87c32.059,0,58.141-26.08,58.141-58.139v-70.869
				c0-32.059-26.082-58.141-58.141-58.141h-70.87c-32.059,0-58.14,26.082-58.14,58.141V547.553z M252.361,476.684
				c0-8.451,6.85-15.301,15.3-15.301h70.87c8.451,0,15.301,6.85,15.301,15.301v70.869c0,8.449-6.85,15.301-15.301,15.301h-70.87
				c-8.45,0-15.3-6.852-15.3-15.301V476.684z"/>
			<path fill="#fff" d="M338.531,606.191h-70.87c-32.334,0-58.64-26.306-58.64-58.639v-70.869c0-32.335,26.306-58.641,58.64-58.641h70.87
				c32.335,0,58.641,26.306,58.641,58.641v70.869C397.172,579.886,370.866,606.191,338.531,606.191z M267.662,419.043
				c-31.783,0-57.64,25.857-57.64,57.641v70.869c0,31.782,25.857,57.639,57.64,57.639h70.87c31.783,0,57.641-25.856,57.641-57.639
				v-70.869c0-31.783-25.857-57.641-57.641-57.641H267.662z M338.531,563.354h-70.87c-8.712,0-15.8-7.088-15.8-15.801v-70.869
				c0-8.713,7.088-15.801,15.8-15.801h70.87c8.713,0,15.801,7.088,15.801,15.801v70.869
				C354.332,556.266,347.244,563.354,338.531,563.354z M267.662,461.883c-8.161,0-14.8,6.64-14.8,14.801v70.869
				c0,8.161,6.639,14.801,14.8,14.801h70.87c8.161,0,14.801-6.64,14.801-14.801v-70.869c0-8.161-6.64-14.801-14.801-14.801H267.662z
				"/>
		</g>
		<g>
			<path fill="#fff" d="M544.875,418.543h-70.869c-32.059,0-58.141,26.082-58.141,58.141v70.869c0,32.059,26.082,58.141,58.141,58.141h70.869
				c32.059,0,58.141-26.082,58.141-58.141v-70.869C603.016,444.623,576.934,418.543,544.875,418.543z M560.176,547.553
				c0,8.449-6.85,15.299-15.301,15.299h-70.869c-8.451,0-15.301-6.85-15.301-15.299v-70.869c0-8.451,6.85-15.301,15.301-15.301
				h70.869c8.451,0,15.301,6.85,15.301,15.301V547.553z"/>
			<path fill="#fff" d="M544.875,606.193h-70.869c-32.335,0-58.641-26.306-58.641-58.641v-70.869c0-32.335,26.306-58.641,58.641-58.641h70.869
				c32.335,0,58.641,26.306,58.641,58.641v70.869C603.516,579.888,577.21,606.193,544.875,606.193z M474.006,419.043
				c-31.783,0-57.641,25.857-57.641,57.641v70.869c0,31.783,25.857,57.641,57.641,57.641h70.869
				c31.783,0,57.641-25.857,57.641-57.641v-70.869c0-31.783-25.857-57.641-57.641-57.641H474.006z M544.875,563.352h-70.869
				c-8.713,0-15.801-7.087-15.801-15.799v-70.869c0-8.713,7.088-15.801,15.801-15.801h70.869c8.713,0,15.801,7.088,15.801,15.801
				v70.869C560.676,556.265,553.588,563.352,544.875,563.352z M474.006,461.883c-8.161,0-14.801,6.64-14.801,14.801v70.869
				c0,8.16,6.64,14.799,14.801,14.799h70.869c8.161,0,14.801-6.639,14.801-14.799v-70.869c0-8.161-6.64-14.801-14.801-14.801
				H474.006z"/>
		</g>
	</g>
</g>
<g>
</g>
<g>
</g>
<g>
</g>
<g>
</g>
<g>
</g>
<g>
</g>
<g>
</g>
<g>
</g>
<g>
</g>
<g>
</g>
<g>
</g>
<g>
</g>
<g>
</g>
<g>
</g>
<g>
</g>
</svg>
